<svg id="PeopleCentered_v1H" data-name="PeopleCentered v1H" xmlns="http://www.w3.org/2000/svg" viewBox="0 0 633.5 172.07"><defs><style>.cls-1{fill:#fff;}</style></defs><g id="University..."><path class="cls-1" d="M201.7,108.66H205v16c0,4.81,2.6,7.85,7.46,7.85s7.46-3,7.46-7.85v-16h3.27v16.06c0,6.55-3.59,10.73-10.73,10.73s-10.73-4.22-10.73-10.69v-16.1Z" transform="translate(-0.05 0.09)"/><path class="cls-1" d="M232.6,113.75V135h-3.28V108.66h3.35l15.15,20.79V108.66h3.28V135h-3.16Z" transform="translate(-0.05 0.09)"/><path class="cls-1" d="M257.26,108.66h3.28V135h-3.28Z" transform="translate(-0.05 0.09)"/><path class="cls-1" d="M264,108.66h3.75l8.88,22.73,8.88-22.73h3.75L278.62,135h-4.06Z" transform="translate(-0.05 0.09)"/><path class="cls-1" d="M292.65,108.66h17.24v2.92h-14v8.48h13.69V123H295.92v9.08h14V135H292.65Z" transform="translate(-0.05 0.09)"/><path class="cls-1" d="M323.63,124.52h-5.25V135H315.1V108.66h10.58c4.81,0,8.25,3.08,8.25,7.93a7.3,7.3,0,0,1-6.83,7.66L334.2,135h-3.87Zm1.66-12.94h-6.91v10.06h6.91a5,5,0,0,0,0-10.06Z" transform="translate(-0.05 0.09)"/><path class="cls-1" d="M339.45,128.78a11.14,11.14,0,0,0,8.29,3.75c4.7,0,6.2-2.53,6.2-4.54,0-3.16-3.2-4-6.67-5-4.22-1.1-8.92-2.29-8.92-7.46,0-4.34,3.87-7.3,9-7.3a12.38,12.38,0,0,1,9.35,3.67l-2,2.41a10.1,10.1,0,0,0-7.62-3.16c-3.16,0-5.41,1.7-5.41,4.18,0,2.64,3,3.43,6.39,4.34,4.3,1.14,9.19,2.49,9.19,8,0,3.83-2.6,7.73-9.71,7.73a13,13,0,0,1-10.1-4.18Z" transform="translate(-0.05 0.09)"/><path class="cls-1" d="M362.22,108.66h3.27V135h-3.27Z" transform="translate(-0.05 0.09)"/><path class="cls-1" d="M378.16,111.58h-8.33v-2.92h20v2.92h-8.37V135h-3.27v-23.4Z" transform="translate(-0.05 0.09)"/><path class="cls-1" d="M401.8,123.85l-10.38-15.19h3.83l8.17,12.23,8.17-12.23h3.83l-10.34,15.19V135H401.8Z" transform="translate(-0.05 0.09)"/><path class="cls-1" d="M441,108.22c7.77,0,13.06,5.84,13.06,13.61s-5.29,13.61-13.06,13.61S428,129.6,428,121.83,433.21,108.22,441,108.22Zm0,2.92c-5.92,0-9.67,4.54-9.67,10.69s3.75,10.69,9.67,10.69,9.67-4.58,9.67-10.69-3.79-10.68-9.67-10.68Z" transform="translate(-0.05 0.09)"/><path class="cls-1" d="M459.21,108.66h17.24v2.92h-14v8.48h13.69V123H462.48v12h-3.27Z" transform="translate(-0.05 0.09)"/><path class="cls-1" d="M491.45,128.78a11.14,11.14,0,0,0,8.29,3.75c4.7,0,6.19-2.53,6.19-4.54,0-3.16-3.2-4-6.67-5-4.22-1.1-8.92-2.29-8.92-7.46,0-4.34,3.87-7.3,9-7.3a12.38,12.38,0,0,1,9.35,3.67l-2,2.41a10.1,10.1,0,0,0-7.62-3.16c-3.16,0-5.41,1.7-5.41,4.18,0,2.64,3,3.43,6.39,4.34,4.3,1.14,9.19,2.49,9.19,8,0,3.83-2.6,7.73-9.71,7.73a13,13,0,0,1-10.1-4.18Z" transform="translate(-0.05 0.09)"/><path class="cls-1" d="M514.22,108.66h3.27v16c0,4.81,2.6,7.85,7.46,7.85s7.46-3,7.46-7.85v-16h3.28v16.06c0,6.55-3.59,10.73-10.73,10.73s-10.73-4.22-10.73-10.69v-16.1Z" transform="translate(-0.05 0.09)"/><path class="cls-1" d="M550.36,124.52h-5.25V135h-3.27V108.66h10.58c4.81,0,8.25,3.08,8.25,7.93a7.3,7.3,0,0,1-6.83,7.66l7.1,10.73h-3.87ZM552,111.58h-6.91v10.06H552a5,5,0,0,0,0-10.06Z" transform="translate(-0.05 0.09)"/><path class="cls-1" d="M574.35,124.52H569.1V135h-3.27V108.66h10.58c4.81,0,8.25,3.08,8.25,7.93a7.3,7.3,0,0,1-6.83,7.66l7.1,10.73H581ZM576,111.58h-6.91v10.06H576a5,5,0,0,0,0-10.06Z" transform="translate(-0.05 0.09)"/><path class="cls-1" d="M589.82,108.66H607v2.92H593v8.48h13.69V123H593.09v9.08h14V135H589.82Z" transform="translate(-0.05 0.09)"/><path class="cls-1" d="M619.93,123.85l-10.38-15.19h3.83l8.17,12.23,8.17-12.23h3.83l-10.34,15.19V135h-3.28V123.85Z" transform="translate(-0.05 0.09)"/></g><g id="People..."><path class="cls-1" d="M202.41,39.44H218c7.47,0,11.63,5.12,11.63,11.15S225.44,61.74,218,61.74h-9.39V75h-6.24Zm14.78,5.5h-8.54V56.22h8.54c3.52,0,6.08-2.24,6.08-5.65S220.71,44.94,217.19,44.94Z" transform="translate(-0.05 0.09)"/><path class="cls-1" d="M245.35,48.62c7.73,0,12.7,5.92,12.7,14V64h-19.9A7.81,7.81,0,0,0,246.37,71a10.87,10.87,0,0,0,7.31-2.83l2.56,3.68a15,15,0,0,1-10.46,3.73c-7.74,0-13.5-5.39-13.5-13.55C232.29,54.65,237.73,48.62,245.35,48.62ZM238.1,60h14.51a6.9,6.9,0,0,0-7-6.84h-.29A7.13,7.13,0,0,0,238.1,60Z" transform="translate(-0.05 0.09)"/><path class="cls-1" d="M262,62.11c0-7.36,5.07-13.5,13.23-13.5s13.28,6.13,13.28,13.5-5,13.55-13.28,13.55S262,69.53,262,62.11Zm20.7,0c0-4.53-2.67-8.54-7.47-8.54s-7.41,4-7.41,8.54,2.67,8.59,7.41,8.59,7.45-4,7.45-8.59Z" transform="translate(-0.05 0.09)"/><path class="cls-1" d="M294.17,84.84V49.22h5.6v3.52A10.3,10.3,0,0,1,308,48.62c6.67,0,11.42,5,11.42,13.5S314.69,75.67,308,75.67a10.1,10.1,0,0,1-8.27-4.21V84.85h-5.58Zm12.21-31.26a8.34,8.34,0,0,0-6.61,3.47V67.22a8.53,8.53,0,0,0,6.61,3.47c4.43,0,7.25-3.57,7.25-8.59S310.81,53.58,306.38,53.58Z" transform="translate(-0.05 0.09)"/><path class="cls-1" d="M325.11,39.44h5.6V75h-5.6Z" transform="translate(-0.05 0.09)"/><path class="cls-1" d="M349.44,48.62c7.74,0,12.7,5.92,12.7,14V64h-19.9A7.81,7.81,0,0,0,350.46,71a10.87,10.87,0,0,0,7.31-2.83l2.56,3.68a15,15,0,0,1-10.46,3.73c-7.74,0-13.5-5.39-13.5-13.55C336.37,54.65,341.81,48.62,349.44,48.62ZM342.18,60h14.51a6.9,6.9,0,0,0-7-6.84h-.29A7.13,7.13,0,0,0,342.18,60Z" transform="translate(-0.05 0.09)"/><path class="cls-1" d="M365.65,59.71h12.8v4.8h-12.8Z" transform="translate(-0.05 0.09)"/><path class="cls-1" d="M382.24,57.22c0-10.94,8.16-18.4,18.4-18.4a16.2,16.2,0,0,1,14.56,8l-5.33,2.72a10.69,10.69,0,0,0-9.23-5.17c-6.77,0-12,5.39-12,12.86s5.23,12.86,12,12.86a10.57,10.57,0,0,0,9.23-5.17l5.33,2.72a16.27,16.27,0,0,1-14.56,8C390.4,75.66,382.24,68.22,382.24,57.22Z" transform="translate(-0.05 0.09)"/><path class="cls-1" d="M431.54,48.62c7.73,0,12.7,5.92,12.7,14V64h-19.9A7.8,7.8,0,0,0,432.55,71a10.87,10.87,0,0,0,7.31-2.83l2.56,3.68A15,15,0,0,1,432,75.62c-7.74,0-13.5-5.39-13.5-13.55C418.47,54.65,423.91,48.62,431.54,48.62ZM424.28,60h14.51a6.9,6.9,0,0,0-7-6.84h-.29A7.13,7.13,0,0,0,424.28,60Z" transform="translate(-0.05 0.09)"/><path class="cls-1" d="M467.17,58.91c0-4-2-5.33-5.17-5.33a8.49,8.49,0,0,0-6.62,3.47v18h-5.6V49.22h5.6v3.52a12.18,12.18,0,0,1,9.07-4.16c5.55,0,8.32,3,8.32,8.27V75h-5.6V58.91Z" transform="translate(-0.05 0.09)"/><path class="cls-1" d="M481.15,69.05V54.22h-4.27v-5h4.27v-7h5.6v7H492v5h-5.23v13.5c0,1.76.85,3,2.45,3a3.62,3.62,0,0,0,2.51-.91L493.08,74c-1,1-2.67,1.65-5.28,1.65C483.44,75.66,481.15,73.32,481.15,69.05Z" transform="translate(-0.05 0.09)"/><path class="cls-1" d="M497,49.22h5.6V53A11,11,0,0,1,511,48.64v5.58a8,8,0,0,0-1.76-.16c-2.35,0-5.5,1.6-6.62,3.41V75H497Z" transform="translate(-0.05 0.09)"/><path class="cls-1" d="M527,48.62c7.73,0,12.7,5.92,12.7,14V64h-19.9A7.8,7.8,0,0,0,528,71a10.87,10.87,0,0,0,7.31-2.83l2.56,3.68a15,15,0,0,1-10.46,3.73c-7.74,0-13.5-5.39-13.5-13.55C514,54.65,519.4,48.62,527,48.62ZM519.76,60h14.51a6.9,6.9,0,0,0-7-6.82H527A7.13,7.13,0,0,0,519.77,60Z" transform="translate(-0.05 0.09)"/><path class="cls-1" d="M563.41,71.5a10.44,10.44,0,0,1-8.27,4.16c-6.61,0-11.47-5-11.47-13.5,0-8.32,4.8-13.55,11.47-13.55a10.35,10.35,0,0,1,8.27,4.21V39.43H569V75h-5.6Zm0-14.45a8.48,8.48,0,0,0-6.67-3.47c-4.43,0-7.25,3.57-7.25,8.59s2.83,8.54,7.25,8.54a8.42,8.42,0,0,0,6.67-3.41Z" transform="translate(-0.05 0.09)"/><path class="cls-1" d="M612.7,68.22H595.84l-2.61,6.83H586.4l14-35.58h7.79l14,35.58h-6.87Zm-15.1-5.5h13.34l-6.67-18Z" transform="translate(-0.05 0.09)"/><path class="cls-1" d="M626,39.44h6.24V75H626Z" transform="translate(-0.05 0.09)"/></g><path class="cls-1" d="M51.82,80.93c1.26-10.66-6.09-20.33-16.38-21.54a1.58,1.58,0,0,0-.37,3.13c8.63,1,14.79,9.12,13.73,18.06S39.87,96,31.25,94.94A15.49,15.49,0,0,1,20.12,88a1.49,1.49,0,0,0-2.06-.43l0,0a1.61,1.61,0,0,0-.41,2.19,18.5,18.5,0,0,0,13.28,8.28c10.29,1.21,19.68-6.48,20.94-17.14" transform="translate(-0.05 0.09)"/><path class="cls-1" d="M166.85,104.89h-.14a166.13,166.13,0,0,0-11.47-26.06,4.92,4.92,0,0,0,1.27-3.28v-.47c2.83-1.11,5.67-2.34,8.55-3.71a4.85,4.85,0,0,0,3,1.55,78.36,78.36,0,0,1,1,12.61,82.43,82.43,0,0,1-2.28,19.35m-16.44,33.05a4.82,4.82,0,0,0-2.2-.53,4.49,4.49,0,0,0-.73.06c-2.19-4.68-4.21-8.83-6.11-12.57a4.9,4.9,0,0,0,1.34-3.18,106.17,106.17,0,0,0,20.62-8.63,5.23,5.23,0,0,0,.83.73,82.66,82.66,0,0,1-13.75,24.12m-7.1,4.36a4.84,4.84,0,0,0,.73,2.56,83,83,0,0,1-25.67,17,241.4,241.4,0,0,0,19.53-35.48,4.22,4.22,0,0,0,1-.13c1.87,3.69,3.86,7.78,6,12.38a4.9,4.9,0,0,0-1.62,3.63m-27.44,18.29a4.92,4.92,0,0,0-2.23-.54,4.64,4.64,0,0,0-1.17.15c-5-9.31-10.51-19.12-15.94-28.62a4.8,4.8,0,0,0,1.07-2,225.82,225.82,0,0,0,36.22-5.31,5,5,0,0,0,1.46,1.45,239.36,239.36,0,0,1-19.31,35M108.75,165v.32a82.43,82.43,0,0,1-32.45,2.47,5.61,5.61,0,0,0,0-.58A4.87,4.87,0,0,0,75,163.92a320.63,320.63,0,0,0,17.62-30.7h.27a4.92,4.92,0,0,0,1.27-.17c5.09,8.9,10.54,18.65,15.92,28.57a4.82,4.82,0,0,0-1.32,3.32M72.58,162.4a4.56,4.56,0,0,0-1.16-.15,4.89,4.89,0,0,0-2.7.81c-7.74-6.18-15.47-17-16.81-30A4.91,4.91,0,0,0,55.25,130c4.76.25,11.09.49,18.43.49,4.54,0,9.47-.09,14.65-.32a4.94,4.94,0,0,0,1.57,2.07,318.79,318.79,0,0,1-17.32,30.19M44.3,150.1h0a22.13,22.13,0,0,0,2.22-1,1.75,1.75,0,0,0,.73-2.33A1.68,1.68,0,0,0,45,146l0,0a18.91,18.91,0,0,1-5.28,1.78c-10.7,2-21.08-5.53-23.11-16.67a20.87,20.87,0,0,1,5.2-18,1.68,1.68,0,0,0,.44-.87,20.46,20.46,0,0,0,2.71-.1,22,22,0,0,0,6.17-1.56,1.69,1.69,0,0,0,1-1.75,1.89,1.89,0,0,0-.11-.47,1.63,1.63,0,0,0-2.09-1l-.05,0a18.47,18.47,0,0,1-5.27,1.33c-10.59,1.07-20.11-7-21.23-18A20.44,20.44,0,0,1,9.81,73.58a1.59,1.59,0,0,0,.42-.61A21.49,21.49,0,0,0,22.94,79.5a1.64,1.64,0,0,0,.46-3.25C13.75,74.9,7,66.25,8.25,57S18.47,41.22,28.12,42.6A18,18,0,0,1,40.5,50.22a1.76,1.76,0,0,0,2.36.49,1.6,1.6,0,0,0,.54-2.2l0-.07a21.48,21.48,0,0,0-14.71-9.07C26.29,29.17,32.89,18.8,43.5,16.13a20,20,0,0,1,21,7.19,1.72,1.72,0,0,0,2.37.34,1.63,1.63,0,0,0,.42-2.27l0,0a22.44,22.44,0,0,0-6.41-5.79,20.75,20.75,0,0,1,2.92-4.7A20,20,0,0,1,87.28,5a22,22,0,0,0-3.12,2.83,1.88,1.88,0,0,0,.12,2.59,1.72,1.72,0,0,0,2.43.07l.07-.07a19.46,19.46,0,0,1,5.66-4.24c10.15-5.08,22.8-.45,28.2,10.34s1.55,23.7-8.59,28.78c-7.08,3.55-15.32,3.44-21.76-1.85a1.69,1.69,0,0,0-2.39.15l-.08.1a1.9,1.9,0,0,0,.36,2.58c7.53,6.19,17.25,6.49,25.53,2.34a22.94,22.94,0,0,0,6.55-4.94,4.75,4.75,0,0,0,1.49,1.63,53.34,53.34,0,0,1-2,5.65c-6.37,15-17.21,22.62-35,31.53L83.66,83a79.48,79.48,0,0,0-9.82,5A4.9,4.9,0,0,0,66,92a4.82,4.82,0,0,0,.21,1.41c-11.62,9.61-15.83,20.94-17,30.35a4.89,4.89,0,0,0-.17,9.32,46.12,46.12,0,0,0,7.32,20.59,50.29,50.29,0,0,0,8.32,9.8c-9,2-18.12-3.89-20.38-13.28M124.38,12.22A86.43,86.43,0,0,1,147.6,30.57a4.83,4.83,0,0,0-.53,2.21V33a146.74,146.74,0,0,1-18.65,5.28,4.91,4.91,0,0,0-2.06-1.57,49.71,49.71,0,0,0,.2-8,26.58,26.58,0,0,0-2.66-13.53c-.29-.81-.58-1.57-.86-2.27a5.22,5.22,0,0,0,1.34-.71m26.55,25.35a134.53,134.53,0,0,1-.17,33.13h-.22a145.18,145.18,0,0,0-21.63-27.25,4.82,4.82,0,0,0,.53-2.2V41a141.33,141.33,0,0,0,18.6-5.3,4.84,4.84,0,0,0,2.91,1.9m-31.76,51.2-1.93-2.69a4.84,4.84,0,0,0,.6-2,170,170,0,0,0,29.65-5.84,5,5,0,0,0,1.89,1.71,192.58,192.58,0,0,1-10.51,36.83,4.81,4.81,0,0,0-1.07-.12,4.88,4.88,0,0,0-.76.07,239,239,0,0,0-17.89-27.9m-7.06-.25a4.82,4.82,0,0,0,3.09-.46l1.69,2.36a236.13,236.13,0,0,1,17.64,27.47,4.83,4.83,0,0,0-1.6,3.59,222.69,222.69,0,0,1-35.41,5.3,4.94,4.94,0,0,0-.93-1.64c6.11-12.77,11.29-25.3,15.52-36.62m13.2-42.39a4.77,4.77,0,0,0,1.67-.59A141.87,141.87,0,0,1,148.1,72.17a4.91,4.91,0,0,0-1.38,3.34,169.85,169.85,0,0,1-29.46,5.89,4.93,4.93,0,0,0-1.88-1.91,309.34,309.34,0,0,0,9.93-33.32M112.53,78.86a4.9,4.9,0,0,0-4.27,3.52c-6.25.61-13,1.16-20.44,1.73,14.78-7.54,24.74-14.45,31.37-25.78-1.69,5.77-3.92,12.75-6.66,20.53m-23.11,46a5,5,0,0,0-1.35,2.49c-13.36.58-25,.23-32.68-.18a4.93,4.93,0,0,0-3.33-3.52c1.14-8.69,5.1-19.07,15.73-28a4.89,4.89,0,0,0,4.53.91c3.34,5.08,9.6,15.37,17.1,28.28m-2.89-10.49c-4-6.75-7.5-12.5-10.13-16.63-.67-1.06-1.25-2-1.75-2.71a4.89,4.89,0,0,0,.85-4.8q2.4-1.42,5.11-2.76C91,86.67,100.06,86,108.28,85.18a5,5,0,0,0,1.21,2c-4.2,11.27-9.34,23.74-15.37,36.42a4.85,4.85,0,0,0-1.26-.17,5.55,5.55,0,0,0-1,.09q-2.72-4.71-5.36-9.17m65.63-34a3.89,3.89,0,0,0,.68-.13A163.83,163.83,0,0,1,164,105.84a4.77,4.77,0,0,0-1.93,4.7A103.12,103.12,0,0,1,142,119a4.46,4.46,0,0,0-.65-.85,194.08,194.08,0,0,0,10.81-37.73m1.74-41.87a84.7,84.7,0,0,1,12.17,25.36,4.8,4.8,0,0,0-2.26,4.94c-2.83,1.34-5.61,2.54-8.39,3.63a5.08,5.08,0,0,0-1.86-1.42,138.65,138.65,0,0,0,.34-32.51m19.64,29.51a4.9,4.9,0,0,0-4.68-4.89A85.71,85.71,0,0,0,155.62,36a4.9,4.9,0,0,0-6.08-7.5A90.31,90.31,0,0,0,126,10a4.91,4.91,0,0,0,.28-1.61,4.89,4.89,0,0,0-9-2.59c-.78-.32-1.56-.62-2.35-.92a23.83,23.83,0,0,0-24.14-2h-.08C81.2-2.67,68.67-.22,61.33,8.66A24.19,24.19,0,0,0,58,14a24.09,24.09,0,0,0-15.27-1.11c-12.08,3-19.71,14.6-17.59,26.21-10.11.19-18.84,7.39-20.23,17.33A19.78,19.78,0,0,0,8.39,70.6,1.53,1.53,0,0,0,7.7,71,23.84,23.84,0,0,0,.18,91a23.44,23.44,0,0,0,18.26,20.77,24.49,24.49,0,0,0-5.08,19.88c2.36,13,14.49,21.81,27,19.54l.81-.18C44,162.18,55,169.17,65.75,166.57a1.62,1.62,0,0,0,.94-.66,4.79,4.79,0,0,0-.15,1.19,4.9,4.9,0,0,0,.29,1.65v.12h.08a4.89,4.89,0,0,0,8.2,1.48,86,86,0,0,0,34.7-2.52,4.89,4.89,0,0,0,8.79-3v-.08a85.89,85.89,0,0,0,27.61-18.13,4.89,4.89,0,0,0,6.31-6.87,85.76,85.76,0,0,0,14.39-25.2h.1a4.89,4.89,0,0,0,2.62-9,85.23,85.23,0,0,0,2.39-20,82.62,82.62,0,0,0-1-13.14,4.79,4.79,0,0,0,2.62-4.3" transform="translate(-0.05 0.09)"/><path class="cls-1" d="M41.4,119.35c-7.32-1.13-14.2,4.22-15.38,11.87a1.64,1.64,0,0,0,3.21.65.86.86,0,0,0,0-.17,10.38,10.38,0,0,1,11.59-8.95,1.67,1.67,0,0,0,1.87-1.44h0a1.66,1.66,0,0,0-1.35-1.92h0" transform="translate(-0.05 0.09)"/><path class="cls-1" d="M68.72,36.66a1.56,1.56,0,0,0,.36-2.13,1.44,1.44,0,0,0-2-.45l-.06,0a17.11,17.11,0,0,1-22.82-2.9,1.43,1.43,0,0,0-2-.17l-.06.05a1.56,1.56,0,0,0-.44,1.46,1.77,1.77,0,0,0,.36.71,20,20,0,0,0,26.69,3.37" transform="translate(-0.05 0.09)"/><path class="cls-1" d="M64.35,55.71a1.74,1.74,0,1,0-2.13,2.75l.19.13a11,11,0,0,1,3.31,15.17,1.81,1.81,0,0,0,3,2c4.37-6.51,2.41-15.51-4.37-20.06" transform="translate(-0.05 0.09)"/><path class="cls-1" d="M93.68,62.84a1.56,1.56,0,1,0,.33-3.1h-.22a16.13,16.13,0,1,1,13.14-26.3,1.57,1.57,0,1,0,2.43-2h0A19.3,19.3,0,1,0,93.68,62.81" transform="translate(-0.05 0.09)"/></svg>